<svg xmlns="http://www.w3.org/2000/svg" width="224" height="24" viewBox="0 0 224 24" fill="none">
  <path
    d="M6.27063 19.2162C4.18895 19.2162 2.61916 18.6883 1.56126 17.6325C0.520419 16.5596 0 14.7885 0 12.3192C0 9.93504 0.520419 8.19802 1.56126 7.10812C2.6021 6.01822 4.04392 5.47327 5.88671 5.47327C6.75692 5.47327 7.52476 5.58396 8.19021 5.80534C8.85566 6.02673 9.41874 6.39287 9.87944 6.90376C10.3401 7.39762 10.6899 8.05326 10.9288 8.87069C11.1677 9.67108 11.2871 10.6588 11.2871 11.8339V13.2899H3.86476C3.86476 14.482 4.07804 15.342 4.50461 15.8699C4.93119 16.3978 5.69902 16.6618 6.80811 16.6618C7.54182 16.6618 8.14755 16.5766 8.62531 16.4063C9.10308 16.236 9.63203 15.9806 10.2122 15.64L11.1848 17.6836C10.5193 18.1774 9.80266 18.5606 9.03482 18.8331C8.26699 19.0885 7.34559 19.2162 6.27063 19.2162ZM5.91231 7.64455C5.58811 7.64455 5.30657 7.69564 5.06769 7.79782C4.82881 7.9 4.62406 8.07881 4.45343 8.33425C4.2828 8.5897 4.14629 8.94732 4.04392 9.40712C3.9586 9.84989 3.90741 10.4204 3.89035 11.1186H7.72951C7.72951 10.4374 7.69538 9.87544 7.62713 9.43267C7.57594 8.97287 7.4821 8.61524 7.34559 8.3598C7.20909 8.08732 7.0214 7.9 6.78252 7.79782C6.5607 7.69564 6.27063 7.64455 5.91231 7.64455Z"
    fill="black" />
  <path
    d="M21.2392 17.6069C20.7955 18.1348 20.3007 18.535 19.7547 18.8075C19.2087 19.08 18.5517 19.2162 17.7839 19.2162C17.0673 19.2162 16.4189 19.097 15.8387 18.8586C15.2586 18.6202 14.7638 18.237 14.3543 17.7091C13.9448 17.1641 13.6291 16.4574 13.4073 15.5889C13.1855 14.7204 13.0745 13.656 13.0745 12.3958C13.0745 11.1016 13.194 10.0117 13.4329 9.12613C13.6888 8.24059 14.0301 7.52534 14.4566 6.98039C14.9003 6.43544 15.4207 6.05227 16.0179 5.83089C16.6151 5.59247 17.2635 5.47327 17.9631 5.47327C18.6797 5.47327 19.2599 5.6095 19.7035 5.88198C20.1471 6.13742 20.5566 6.41841 20.932 6.72495V2.56119L19.3964 2.22911V0.185547H24.5408V16.7895L26.0765 17.0449V18.8841H21.5719L21.2392 17.6069ZM18.8589 16.6873C19.2854 16.6873 19.6779 16.6192 20.0362 16.483C20.3945 16.3297 20.6931 16.1594 20.932 15.9721V8.94732C20.659 8.74297 20.3945 8.56415 20.1386 8.41089C19.8997 8.25762 19.5499 8.18099 19.0892 8.18099C18.6797 8.18099 18.3385 8.25762 18.0654 8.41089C17.7924 8.54712 17.5706 8.78554 17.4 9.12613C17.2464 9.4497 17.127 9.89247 17.0417 10.4544C16.9734 10.9994 16.9393 11.6721 16.9393 12.4725C16.9393 14.0392 17.0843 15.1376 17.3744 15.7677C17.6645 16.3808 18.1593 16.6873 18.8589 16.6873Z"
    fill="black" />
  <path
    d="M33.9896 19.2162C31.9079 19.2162 30.3381 18.6883 29.2802 17.6325C28.2394 16.5596 27.7189 14.7885 27.7189 12.3192C27.7189 9.93504 28.2394 8.19802 29.2802 7.10812C30.321 6.01822 31.7629 5.47327 33.6057 5.47327C34.4759 5.47327 35.2437 5.58396 35.9091 5.80534C36.5746 6.02673 37.1377 6.39287 37.5984 6.90376C38.0591 7.39762 38.4089 8.05326 38.6477 8.87069C38.8866 9.67108 39.0061 10.6588 39.0061 11.8339V13.2899H31.5837C31.5837 14.482 31.797 15.342 32.2236 15.8699C32.6501 16.3978 33.418 16.6618 34.5271 16.6618C35.2608 16.6618 35.8665 16.5766 36.3442 16.4063C36.822 16.236 37.351 15.9806 37.9311 15.64L38.9037 17.6836C38.2382 18.1774 37.5216 18.5606 36.7538 18.8331C35.9859 19.0885 35.0645 19.2162 33.9896 19.2162ZM33.6312 7.64455C33.307 7.64455 33.0255 7.69564 32.7866 7.79782C32.5477 7.9 32.343 8.07881 32.1724 8.33425C32.0017 8.5897 31.8652 8.94732 31.7629 9.40712C31.6775 9.84989 31.6263 10.4204 31.6093 11.1186H35.4484C35.4484 10.4374 35.4143 9.87544 35.3461 9.43267C35.2949 8.97287 35.201 8.61524 35.0645 8.3598C34.928 8.08732 34.7403 7.9 34.5015 7.79782C34.2796 7.69564 33.9896 7.64455 33.6312 7.64455Z"
    fill="black" />
  <path
    d="M49.5724 10.2245C49.5724 9.57742 49.47 9.11762 49.2652 8.84514C49.0605 8.55564 48.7107 8.41089 48.2159 8.41089C47.8234 8.41089 47.431 8.48752 47.0385 8.64079C46.6631 8.77703 46.3048 8.94732 45.9636 9.15168V16.7895L47.4224 17.0449V18.8841H40.8191V17.0449L42.3547 16.7895V8.33425L40.8191 7.97663V5.80534H45.4517L45.81 7.26138C46.4584 6.68237 47.1068 6.2396 47.7552 5.93307C48.4035 5.62653 49.1458 5.47327 49.9819 5.47327C52.1318 5.47327 53.2068 6.65683 53.2068 9.02396V16.7895L54.7168 17.0449V18.8841H49.5724V10.2245Z"
    fill="black" />
  <path
    d="M61.0476 19.2162C59.1707 19.2162 57.6777 18.9182 56.5686 18.3222V14.9247H59.0001L59.4352 16.8406C59.6741 16.9257 59.8959 16.9939 60.1007 17.0449C60.3054 17.079 60.5869 17.096 60.9453 17.096C61.6619 17.096 62.1823 16.9768 62.5065 16.7384C62.8307 16.483 62.9928 16.1083 62.9928 15.6144C62.9928 15.0695 62.7966 14.6693 62.4042 14.4139C62.0288 14.1414 61.3804 13.8944 60.459 13.6731C59.8447 13.5198 59.2902 13.3325 58.7953 13.1111C58.3176 12.8897 57.9081 12.6172 57.5668 12.2937C57.2426 11.9701 56.9867 11.5784 56.799 11.1186C56.6283 10.6588 56.543 10.1139 56.543 9.48376C56.543 8.29168 56.9611 7.3295 57.7972 6.59723C58.6503 5.84792 59.9215 5.47327 61.6107 5.47327C62.5321 5.47327 63.317 5.54138 63.9654 5.67762C64.6309 5.81386 65.2195 6.0097 65.7314 6.26515V9.61148H63.4023L62.9672 7.79782C62.7625 7.71267 62.5492 7.66158 62.3274 7.64455C62.1056 7.61049 61.8496 7.59346 61.5595 7.59346C60.3139 7.59346 59.6911 8.02772 59.6911 8.89623C59.6911 9.33901 59.8618 9.68811 60.203 9.94356C60.5614 10.199 61.2353 10.4459 62.225 10.6844C62.8734 10.8546 63.445 11.0505 63.9398 11.2719C64.4517 11.4933 64.8783 11.7742 65.2195 12.1148C65.5779 12.4554 65.8423 12.8727 66.013 13.3665C66.2007 13.8434 66.2945 14.4309 66.2945 15.1291C66.2945 15.8103 66.1665 16.4063 65.9106 16.9172C65.6546 17.4281 65.2963 17.8538 64.8356 18.1944C64.3749 18.535 63.8204 18.7905 63.172 18.9608C62.5407 19.1311 61.8325 19.2162 61.0476 19.2162Z"
    fill="black" />
  <path
    d="M72.9522 7.28693C73.1229 7.08257 73.3362 6.87821 73.5921 6.67386C73.848 6.45247 74.1296 6.25663 74.4367 6.08633C74.7439 5.89901 75.0766 5.75426 75.4349 5.65208C75.8103 5.53287 76.2027 5.47327 76.6122 5.47327C77.2265 5.47327 77.8067 5.58396 78.3527 5.80534C78.8987 6.0097 79.3764 6.36732 79.7859 6.87821C80.1955 7.37208 80.5197 8.04475 80.7585 8.89623C80.9974 9.74772 81.1169 10.8121 81.1169 12.0893C81.1169 13.4687 80.9974 14.6097 80.7585 15.5123C80.5197 16.4148 80.1784 17.1386 79.7348 17.6836C79.3082 18.2115 78.7878 18.5861 78.1735 18.8075C77.5592 19.0119 76.8853 19.114 76.1516 19.114C75.5032 19.114 74.923 19.0204 74.4111 18.8331C73.8992 18.6287 73.4556 18.3562 73.0802 18.0156V21.8218L74.6159 22.0772V23.8142H67.9357V22.0772L69.4714 21.8218V8.33425L67.9357 7.97663V5.80534H72.5683L72.9522 7.28693ZM75.1278 16.7639C75.9639 16.7639 76.5184 16.4234 76.7914 15.7422C77.0815 15.044 77.2265 13.8944 77.2265 12.2937C77.2265 11.5103 77.1924 10.8546 77.1241 10.3267C77.0729 9.79881 76.9706 9.38158 76.817 9.07504C76.6634 8.75148 76.4587 8.53009 76.2027 8.41089C75.9468 8.27465 75.6311 8.20653 75.2557 8.20653C74.8121 8.20653 74.4111 8.27465 74.0528 8.41089C73.6945 8.54712 73.3703 8.71742 73.0802 8.92178V16.0232C73.3191 16.2105 73.6177 16.3808 73.976 16.534C74.3343 16.6873 74.7183 16.7639 75.1278 16.7639Z"
    fill="black" />
  <path
    d="M89.715 17.0449V18.8841H83.0348V17.0449L84.5705 16.7895V8.33425L83.0348 7.97663V5.80534H88.1793V16.7895L89.715 17.0449ZM86.2597 4.42594C85.6625 4.42594 85.1506 4.22158 84.7241 3.81287C84.3146 3.40416 84.1098 2.91881 84.1098 2.35683C84.1098 1.76079 84.3146 1.25842 84.7241 0.849705C85.1336 0.440993 85.6369 0.236637 86.2341 0.236637C86.8313 0.236637 87.3347 0.440993 87.7442 0.849705C88.1537 1.25842 88.3585 1.75228 88.3585 2.33129C88.3585 2.9103 88.1537 3.40416 87.7442 3.81287C87.3518 4.22158 86.8569 4.42594 86.2597 4.42594Z"
    fill="black" />
  <path
    d="M97.5507 19.2162C95.469 19.2162 93.8992 18.6883 92.8413 17.6325C91.8005 16.5596 91.28 14.7885 91.28 12.3192C91.28 9.93504 91.8005 8.19802 92.8413 7.10812C93.8821 6.01822 95.324 5.47327 97.1667 5.47327C98.037 5.47327 98.8048 5.58396 99.4702 5.80534C100.136 6.02673 100.699 6.39287 101.159 6.90376C101.62 7.39762 101.97 8.05326 102.209 8.87069C102.448 9.67108 102.567 10.6588 102.567 11.8339V13.2899H95.1448C95.1448 14.482 95.3581 15.342 95.7846 15.8699C96.2112 16.3978 96.9791 16.6618 98.0882 16.6618C98.8219 16.6618 99.4276 16.5766 99.9053 16.4063C100.383 16.236 100.912 15.9806 101.492 15.64L102.465 17.6836C101.799 18.1774 101.083 18.5606 100.315 18.8331C99.547 19.0885 98.6256 19.2162 97.5507 19.2162ZM97.1923 7.64455C96.8681 7.64455 96.5866 7.69564 96.3477 7.79782C96.1088 7.9 95.9041 8.07881 95.7335 8.33425C95.5628 8.5897 95.4263 8.94732 95.324 9.40712C95.2386 9.84989 95.1874 10.4204 95.1704 11.1186H99.0095C99.0095 10.4374 98.9754 9.87544 98.9072 9.43267C98.856 8.97287 98.7621 8.61524 98.6256 8.3598C98.4891 8.08732 98.3014 7.9 98.0626 7.79782C97.8407 7.69564 97.5507 7.64455 97.1923 7.64455Z"
    fill="black" />
  <path
    d="M113.057 8.10435L111.777 7.92554V5.80534H117.28V7.97663L115.718 8.18099L112.903 11.323L116.461 16.7895L117.792 17.0194V18.8841H113.748L109.55 12.1915L113.057 8.10435ZM109.499 16.7895L110.856 17.0449V18.8841H104.38V17.0449L105.89 16.7895V2.58673L104.38 2.22911V0.185547H109.499V16.7895Z"
    fill="black" />
  <path
    d="M125.395 19.2162C123.313 19.2162 121.743 18.6883 120.685 17.6325C119.644 16.5596 119.124 14.7885 119.124 12.3192C119.124 9.93504 119.644 8.19802 120.685 7.10812C121.726 6.01822 123.168 5.47327 125.011 5.47327C125.881 5.47327 126.649 5.58396 127.314 5.80534C127.98 6.02673 128.543 6.39287 129.003 6.90376C129.464 7.39762 129.814 8.05326 130.053 8.87069C130.292 9.67108 130.411 10.6588 130.411 11.8339V13.2899H122.989C122.989 14.482 123.202 15.342 123.629 15.8699C124.055 16.3978 124.823 16.6618 125.932 16.6618C126.666 16.6618 127.271 16.5766 127.749 16.4063C128.227 16.236 128.756 15.9806 129.336 15.64L130.309 17.6836C129.643 18.1774 128.927 18.5606 128.159 18.8331C127.391 19.0885 126.47 19.2162 125.395 19.2162ZM125.036 7.64455C124.712 7.64455 124.431 7.69564 124.192 7.79782C123.953 7.9 123.748 8.07881 123.577 8.33425C123.407 8.5897 123.27 8.94732 123.168 9.40712C123.083 9.84989 123.031 10.4204 123.014 11.1186H126.853C126.853 10.4374 126.819 9.87544 126.751 9.43267C126.7 8.97287 126.606 8.61524 126.47 8.3598C126.333 8.08732 126.145 7.9 125.906 7.79782C125.685 7.69564 125.395 7.64455 125.036 7.64455Z"
    fill="black" />
  <path
    d="M139.391 17.0449V18.8841H132.224V17.0449L133.76 16.7895V8.33425L132.224 7.97663V5.80534H136.729L137.189 7.92554C138.077 6.32475 139.339 5.52436 140.977 5.52436C141.063 5.52436 141.157 5.53287 141.259 5.5499C141.378 5.5499 141.472 5.56693 141.54 5.60099L141.08 9.33049C140.892 9.24534 140.704 9.17722 140.517 9.12613C140.329 9.07504 140.099 9.0495 139.826 9.0495C139.331 9.0495 138.887 9.1091 138.495 9.22831C138.119 9.34752 137.744 9.52633 137.369 9.76475V16.7384L139.391 17.0449Z"
    fill="black" />
  <path
    d="M151.93 5.47327C153.483 5.47327 154.481 6.08633 154.925 7.31247C155.573 6.71643 156.205 6.26515 156.819 5.95861C157.433 5.63505 158.141 5.47327 158.943 5.47327C159.967 5.47327 160.752 5.77129 161.298 6.36733C161.844 6.96336 162.117 7.84891 162.117 9.02396V16.8917L163.653 17.1471V18.8841H158.508V10.2756C158.508 9.62851 158.406 9.16019 158.201 8.87069C158.013 8.58118 157.672 8.43643 157.177 8.43643C156.802 8.43643 156.444 8.49604 156.102 8.61524C155.778 8.73445 155.445 8.90475 155.104 9.12613V16.7895L156.537 17.0449V18.8841H151.47V10.2756C151.47 9.62851 151.376 9.16019 151.188 8.87069C151 8.58118 150.651 8.43643 150.139 8.43643C149.456 8.43643 148.774 8.66633 148.091 9.12613V16.7895L149.525 17.0449V18.8841H142.947V17.0449L144.482 16.7895V8.33425L142.947 7.97663V5.80534H147.579L147.938 7.26138C148.586 6.6994 149.209 6.26515 149.806 5.95861C150.42 5.63505 151.128 5.47327 151.93 5.47327Z"
    fill="black" />
  <path
    d="M170.383 16.815C170.827 16.815 171.185 16.7554 171.458 16.6362C171.748 16.5 172.004 16.3382 172.226 16.1509V12.9834H171.407C170.486 12.9834 169.829 13.1196 169.436 13.3921C169.044 13.6645 168.848 14.2095 168.848 15.0269C168.848 15.674 168.967 16.1339 169.206 16.4063C169.462 16.6788 169.854 16.815 170.383 16.815ZM177.345 18.6287C177.106 18.7649 176.782 18.8927 176.372 19.0119C175.963 19.1481 175.511 19.2162 175.016 19.2162C174.402 19.2162 173.881 19.114 173.455 18.9097C173.028 18.7224 172.721 18.3562 172.533 17.8113C172.329 17.9986 172.115 18.1774 171.893 18.3477C171.689 18.518 171.458 18.6713 171.202 18.8075C170.946 18.9267 170.656 19.0204 170.332 19.0885C170.008 19.1737 169.633 19.2162 169.206 19.2162C168.046 19.2162 167.09 18.9012 166.339 18.2711C165.606 17.641 165.239 16.6277 165.239 15.2313C165.239 13.7667 165.725 12.7109 166.698 12.0638C167.67 11.3996 169.257 11.0675 171.458 11.0675H172.226V10.4289C172.226 9.71366 172.107 9.19425 171.868 8.87069C171.629 8.53009 171.117 8.3598 170.332 8.3598C169.65 8.3598 169.01 8.44495 168.413 8.61524C167.815 8.78554 167.21 9.01544 166.595 9.30494L165.572 7.00594C166.339 6.51208 167.167 6.13742 168.054 5.88198C168.942 5.6095 169.948 5.47327 171.074 5.47327C172.627 5.47327 173.804 5.79683 174.606 6.44396C175.425 7.07406 175.835 8.18099 175.835 9.76475V15.8188C175.835 16.2616 175.912 16.5426 176.065 16.6618C176.236 16.781 176.611 16.8406 177.191 16.8406L177.345 18.6287Z"
    fill="black" />
  <path
    d="M187.817 10.2245C187.817 9.57742 187.715 9.11762 187.51 8.84514C187.305 8.55564 186.955 8.41089 186.461 8.41089C186.068 8.41089 185.676 8.48752 185.283 8.64079C184.908 8.77703 184.55 8.94732 184.208 9.15168V16.7895L185.667 17.0449V18.8841H179.064V17.0449L180.6 16.7895V8.33425L179.064 7.97663V5.80534H183.696L184.055 7.26138C184.703 6.68237 185.352 6.2396 186 5.93307C186.648 5.62653 187.391 5.47327 188.227 5.47327C190.377 5.47327 191.452 6.65683 191.452 9.02396V16.7895L192.962 17.0449V18.8841H187.817V10.2245Z"
    fill="black" />
  <path
    d="M203.439 10.2245C203.439 9.57742 203.336 9.11762 203.132 8.84514C202.927 8.55564 202.577 8.41089 202.082 8.41089C201.69 8.41089 201.297 8.48752 200.905 8.64079C200.529 8.77703 200.171 8.94732 199.83 9.15168V16.7895L201.289 17.0449V18.8841H194.685V17.0449L196.221 16.7895V8.33425L194.685 7.97663V5.80534H199.318L199.676 7.26138C200.325 6.68237 200.973 6.2396 201.622 5.93307C202.27 5.62653 203.012 5.47327 203.848 5.47327C205.998 5.47327 207.073 6.65683 207.073 9.02396V16.7895L208.583 17.0449V18.8841H203.439V10.2245Z"
    fill="black" />
  <path d="M209.411 20.2635H224V22.8691H209.411V20.2635Z" fill="black" />
</svg>